<?xml version="1.0" encoding="utf-8"?>
<!-- Svg Vector Icons : http://www.onlinewebfonts.com/icon -->
<!DOCTYPE svg PUBLIC "-//W3C//DTD SVG 1.1//EN" "http://www.w3.org/Graphics/SVG/1.1/DTD/svg11.dtd">
<svg version="1.1" xmlns="http://www.w3.org/2000/svg" xmlns:xlink="http://www.w3.org/1999/xlink" x="0px" y="0px" viewBox="0 0 1000 1000" enable-background="new 0 0 1000 1000" xml:space="preserve">
<metadata> Svg Vector Icons : http://www.onlinewebfonts.com/icon </metadata>
<g><path d="M827.6,730.8c0,34.8-23.2,58-58,58H189.8c-34.8,0-58-29-58-58V429.3c0-23.2,11.6-40.6,29-52.2c17.4-46.4,40.6-87,69.6-127.6H184c-98.6,0-174,81.2-174,179.8v301.5c0,98.6,75.4,179.8,174,179.8h579.9c98.6,0,174-81.2,174-179.8V493.1l-116,87v150.8H827.6z M897.2,122c-174-81.2-382.7-5.8-463.9,174l-52.2-23.2c-17.4-11.6-46.4-5.8-58,5.8c-11.6,5.8-17.4,11.6-17.4,23.2c-5.8,11.6-5.8,23.2-5.8,34.8l58,289.9c5.8,17.4,17.4,34.8,34.8,40.6c17.4,5.8,34.8,5.8,52.2,0l255.1-139.2c11.6-5.8,17.4-17.4,23.2-29c5.8-5.8,5.8-17.4,5.8-29c0-23.2-11.6-40.6-34.8-52.2l-52.2-23.2c63.8-139.2,208.8-220.4,347.9-203C966.8,162.5,937.8,139.4,897.2,122z"/></g>
</svg>